<?xml version="1.0" encoding="UTF-8"?>
<!DOCTYPE svg  PUBLIC '-//W3C//DTD SVG 1.1//EN'  'http://www.w3.org/Graphics/SVG/1.1/DTD/svg11.dtd'>
<svg enable-background="new -179.5604 -439.2281 1181.1207 1685.6714" version="1.1" viewBox="-179.5604 -439.2281 1181.1207 1685.6714" xml:space="preserve" xmlns="http://www.w3.org/2000/svg">
	<path d="m619.68-4.4076c-2.2959 5.1422-7.1514 8.0089-10.791 6.3733-3.6397-1.6381-4.7505-7.1899-2.4725-12.337 0 0 73.127-165.17 20.704-276.74-24.226-51.557-104.78-91.323-191.55-94.551-90.164-3.3377-163.22 32.555-200.43 98.523-34.268 60.739-24.441 238.13-24.441 238.13 0.3123 5.6234-2.6927 10.41-6.6779 10.64-3.9853 0.2304-7.4995-4.1823-7.8092-9.8057 0 0-10.051-181.69 26.289-246.1 39.978-70.862 117.87-109.44 213.61-105.89 91.886 3.4196 177.74 46.687 204.15 102.88 16.018 34.086 30.502 95.454 8.5515 194.23-13.003 58.614-29.102 94.653-29.102 94.653l-0.0206 0.0027z" fill="#58595B"/>
	<polygon points="-116.27 -127.01 -149.55 940.92 712.62 1203.6 763.15 -45.873" fill="#EF4136"/>
	<polygon points="712.62 1203.6 971.55 1057.3 971.55 -97.064 828.21 -76.588 763.15 -45.873" fill="#E83A0C"/>
	<polygon points="763.15 -45.873 828.21 -76.588 828.21 972.84 712.62 1203.6" fill="#F95753"/>
	<polygon points="712.62 1203.6 828.21 972.84 971.55 1057.3" fill="#F98585"/>
	<polygon points="763.15 -45.873 828.21 -76.588 971.55 -97.064 60.339 -153.37 21.945 -140.58 -116.27 -127.01" fill="#939598"/>
	<circle cx="87.47" cy="-14.672" r="36.323" fill="#EAEEEF"/>
	<circle cx="87.47" cy="-14.672" r="24.8" fill="#939598"/>
	<circle cx="494.9" cy="21.649" r="36.323" fill="#EAEEEF"/>
	<circle cx="494.9" cy="21.649" r="24.8" fill="#939598"/>
	<path d="m503.12 20.395c-2.2959 5.1422-7.1515 8.0089-10.791 6.3708-3.6397-1.6382-4.7505-7.1898-2.4726-12.337 0 0 73.127-165.17 20.704-276.74-24.226-51.558-104.79-91.323-191.55-94.551-90.13-3.3505-163.22 32.555-200.43 98.523-34.255 60.721-24.441 238.14-24.441 238.14 0.3097 5.6234-2.6953 10.41-6.6779 10.64-3.9853 0.2304-7.4995-4.1823-7.8092-9.8057 0 0-10.051-181.69 26.289-246.1 39.978-70.859 117.84-109.45 213.61-105.89 91.886 3.4196 177.74 46.687 204.15 102.88 16.018 34.086 30.502 95.452 8.5515 194.23-13.003 58.614-29.102 94.653-29.102 94.653l-0.0205 0.0027z" fill="#6D6E71"/>
</svg>
